# xmcd CD database file
#
# Track frame offsets:
#	150
#	16014
#	29430
#	42678
#	57318
#	71574
#	86260
#	100015
#	113841
#	128984
#	142564
#	155057
#	170066
#	184635
#	197955
#	212259
#	225562
#	237959
#	252116
#	266153
#	280874
#	293312
#	306893
#	321221
#
# Disc length: 4473 seconds
#
# Revision: 0
# Processed by: cddbd v1.5.2PL0 Copyright (c) Steve Scherf et al.
# Submitted via: CDex 1.72
#
DISCID=4c117718
DTITLE=John Tefteller - Vol. 11 - 18 Classic Blues Songs from the 1920's (2014)
DYEAR=2014
DGENRE=Blues
TTITLE0=Henry Thomas - Bull Doze Blues
TTITLE1=Furry Lewis - Good Looking Girl Blues
TTITLE2=Charley Patton - Mean Black Cat Blues
TTITLE3=Mississippi Sheiks - Cracking Them Things
TTITLE4=Blind Blake - Miss Emma Liza
TTITLE5=Luella Miller - Rattle Snake Groan
TTITLE6=Reverend E W Clayborn - Your Enemies Cannot Harm You (But Watch Your Close Friend)
TTITLE7=Blind Lemon Jefferson - Long Lonesome Blues
TTITLE8=Washboard Walter - She's A Long Tall Disconnected Mama
TTITLE9=Bessie Smith - Blue Spirit Blues
TTITLE10=Papa Charlie Jackson - Let's Get Along
TTITLE11=Mother McCollum - Jesus Is My Air-O-Plane
TTITLE12=Blind Gussie Nesbitt - He's The Joy Of My Salvation
TTITLE13=Blind Gussie Netbitt - God Is Worried At Your Wicked Ways
TTITLE14=Jim Thompkins - Bedside Blues
TTITLE15=George Carter - Ghost Woman Blues
TTITLE16=George Carter - Weeping Willow Blues
TTITLE17=Blind Percy - Fourteenth Street Blues
TTITLE18=Blind Percy - Coal River Blues
TTITLE19=Washboard Walter - Overall Cheater Blues
TTITLE20=Tenderfoot Edwards - When You Dream Of Muddy Water
TTITLE21=Tenderfoot Edwards - Up On The Hill Blues
TTITLE22=Blind Blake - Dissatisfied Blues
TTITLE23=Charley Patton - Magnolia Blues
EXTD=YEAR: 2014
EXTT0=
EXTT1=
EXTT2=
EXTT3=
EXTT4=
EXTT5=
EXTT6=
EXTT7=
EXTT8=
EXTT9=
EXTT10=
EXTT11=
EXTT12=
EXTT13=
EXTT14=
EXTT15=
EXTT16=
EXTT17=
EXTT18=
EXTT19=
EXTT20=
EXTT21=
EXTT22=
EXTT23=
PLAYORDER=
